<?xml version="1.0" encoding="UTF-8" standalone="no"?>
<!-- Created with Inkscape (http://www.inkscape.org/) -->

<svg
   version="1.1"
   id="svg2"
   width="1000"
   height="666.66669"
   viewBox="0 0 1000 666.66669"
   sodipodi:docname="20884542_6384386.eps"
   xmlns:inkscape="http://www.inkscape.org/namespaces/inkscape"
   xmlns:sodipodi="http://sodipodi.sourceforge.net/DTD/sodipodi-0.dtd"
   xmlns="http://www.w3.org/2000/svg"
   xmlns:svg="http://www.w3.org/2000/svg">
  <defs
     id="defs6" />
  <sodipodi:namedview
     id="namedview4"
     pagecolor="#ffffff"
     bordercolor="#000000"
     borderopacity="0.25"
     inkscape:showpageshadow="2"
     inkscape:pageopacity="0.0"
     inkscape:pagecheckerboard="0"
     inkscape:deskcolor="#d1d1d1" />
  <g
     id="g8"
     inkscape:groupmode="layer"
     inkscape:label="ink_ext_XXXXXX"
     transform="matrix(1.3333333,0,0,-1.3333333,0,666.66667)">
    <g
       id="g10"
       transform="scale(0.1)">
      <path
         d="M 0,0 H 7500 V 5000 H 0 Z"
         style="fill:#ffffff;fill-opacity:1;fill-rule:nonzero;stroke:none"
         id="path12" />
      <path
         d="m 932.074,3147.84 c 0,0 365.926,444.77 1479.626,424.92 1113.7,-19.85 2441.3,-730.89 3182.73,-606.93 1079.43,180.46 1412.81,-429.87 1217.62,-1115.66 -177.71,-624.43 -1716.7,-722.01 -2606.88,-418.74 -890.2,303.25 -1975.9,262.58 -2408.98,91.79 -433.08,-170.78 -872.249,66.66 -1051.17,383.04 -178.922,316.38 -154.524,946.45 187.054,1241.58"
         style="fill:#ebcce9;fill-opacity:1;fill-rule:nonzero;stroke:none"
         id="path14" />
      <path
         d="m 6168.96,2884.15 182.12,-431.55 -185.72,-85.25 c 0,0 -251.41,343.57 -259.21,390.5 -7.79,46.93 46.68,105.87 46.68,105.87 l 216.13,20.43"
         style="fill:#f1465b;fill-opacity:1;fill-rule:nonzero;stroke:none"
         id="path16" />
      <path
         d="m 6150.46,2495.26 241.89,555.66 155.48,-33.39 c 0,0 -112.96,-526.73 -145.51,-601.98 -62.73,-145.02 -316.73,-107.17 -251.86,79.71"
         style="fill:#f46b78;fill-opacity:1;fill-rule:nonzero;stroke:none"
         id="path18" />
      <path
         d="m 6338.93,3261.91 c 20.47,-10.58 52.02,-36.57 77.56,-59.07 l 59.64,75.03 -0.06,0.04 c 3.12,4.22 9.92,12.73 18.82,23.55 l 0.02,0.02 c 29.85,36.24 83.75,98.62 105.45,114.54 28.18,20.68 36.35,-6.88 23.3,-22.41 -10.08,-11.98 -65.71,-95.53 -90.61,-133.11 l 1.36,-1.47 c 26.8,33.19 89.92,107.27 113.84,124.83 28.19,20.68 36.36,-6.88 23.3,-22.4 -11.27,-13.42 -79.66,-116.54 -98.08,-144.39 l 1.04,-1.13 c 29.21,35.65 85.7,101.31 108.05,117.7 28.18,20.69 36.35,-6.87 23.3,-22.4 -8.62,-10.25 -50.61,-72.92 -78.15,-114.35 28.72,28.53 62.83,60.68 78.54,70.38 27.27,16.83 32.71,-8.95 19.64,-22.19 -8.95,-9.06 -54.87,-67.05 -82.93,-102.7 l -89.41,-121.32 -26.5,-79.15 -154.87,51.87 20.17,57.14 -18.13,91.95 c -16.33,27.69 -39.07,65.2 -51.14,80.36 -20.18,25.33 -23.49,59 15.85,38.68"
         style="fill:#f46b78;fill-opacity:1;fill-rule:nonzero;stroke:none"
         id="path20" />
      <path
         d="m 6605.42,3156.82 -1.79,1.17 -102.98,111.38 c -1.66,1.79 -1.54,4.59 0.26,6.25 1.79,1.66 4.58,1.56 6.24,-0.25 l 102.98,-111.38 c 1.66,-1.79 1.55,-4.59 -0.25,-6.25 -1.25,-1.15 -2.97,-1.45 -4.46,-0.92"
         style="fill:#f1465b;fill-opacity:1;fill-rule:nonzero;stroke:none"
         id="path22" />
      <path
         d="m 6458.14,3120.28 c -1.84,0.65 -3.09,2.46 -2.94,4.51 2.75,36.94 -24.77,65.19 -25.05,65.47 -1.72,1.74 -1.71,4.53 0.03,6.26 1.72,1.72 4.53,1.72 6.25,-0.02 1.25,-1.26 30.65,-31.31 27.59,-72.37 -0.17,-2.44 -2.3,-4.27 -4.74,-4.09 l -1.14,0.24"
         style="fill:#f1465b;fill-opacity:1;fill-rule:nonzero;stroke:none"
         id="path24" />
      <path
         d="m 4987.7,3073.79 42.09,-861.63 -42.09,-364.87 h 970.28 l -30.11,333.17 30.11,809.84 -970.28,83.49"
         style="fill:#f03f51;fill-opacity:1;fill-rule:nonzero;stroke:none"
         id="path26" />
      <path
         d="m 5811.04,3098.83 c -148.08,52.57 -250.14,137.17 -346.21,177.92 -99.81,-30.45 -210.18,-103.88 -362.95,-140.63 -242.41,-58.31 -285.32,263.67 -109.12,365.87 155.12,89.95 138.14,107.24 186.17,272.99 3.11,10.75 6.51,22.13 10.25,34.21 4.07,13.25 8.57,27.3 13.57,42.27 2.93,8.75 5.94,17.17 9.07,25.28 47.62,123.74 169.15,197.09 294.34,186.12 125.68,-2.22 238.84,-87.9 273.22,-215.96 2.26,-8.39 4.37,-17.09 6.37,-26.09 3.4,-15.41 6.4,-29.86 9.06,-43.46 2.46,-12.41 4.64,-24.09 6.62,-35.1 30.38,-169.87 11.68,-185.29 156.5,-291 164.51,-120.12 88.08,-435.82 -146.89,-352.42"
         style="fill:#4d1646;fill-opacity:1;fill-rule:nonzero;stroke:none"
         id="path28" />
      <path
         d="m 6064.22,2919.37 -1178.64,61.97 c 0,0 19.76,74.14 46.28,148.27 26.52,74.13 74.77,103.2 135.9,115.51 17.26,3.48 48.89,10.88 85.39,19.69 20.69,5.02 42.97,10.48 65.08,15.95 77.16,19.07 152.43,38.24 152.43,38.24 l 123.1,3.35 h 0.71 l 0.69,-0.07 110.12,-14.66 c 0,0 65.45,-23.46 136.98,-48.74 67.12,-23.7 139.62,-49.04 168.42,-58.08 59.52,-18.65 104.45,-52.62 123.05,-129.13 18.59,-76.49 30.49,-152.3 30.49,-152.3"
         style="fill:#f03f51;fill-opacity:1;fill-rule:nonzero;stroke:none"
         id="path30" />
      <path
         d="m 5023.39,3134.12 c -1.31,0.06 -2.61,0.55 -3.67,1.49 l -29.93,26.1 c -2.53,2.21 -2.8,6.05 -0.59,8.58 2.21,2.53 6.04,2.8 8.57,0.58 l 29.94,-26.1 c 2.52,-2.21 2.79,-6.05 0.58,-8.58 -1.28,-1.47 -3.1,-2.17 -4.9,-2.07"
         style="fill:#c21862;fill-opacity:1;fill-rule:nonzero;stroke:none"
         id="path32" />
      <path
         d="m 5016.45,3002.13 c -1.31,0.07 -2.61,0.56 -3.68,1.49 l -29.93,26.11 c -2.53,2.21 -2.79,6.05 -0.58,8.58 2.2,2.53 6.05,2.79 8.58,0.58 l 29.93,-26.11 c 2.53,-2.2 2.79,-6.04 0.59,-8.58 -1.28,-1.46 -3.11,-2.16 -4.91,-2.07"
         style="fill:#c21862;fill-opacity:1;fill-rule:nonzero;stroke:none"
         id="path34" />
      <path
         d="m 5208.35,3172.92 c -1.08,0.05 -2.17,0.41 -3.14,1.07 -2.75,1.91 -3.44,5.7 -1.53,8.46 l 22.6,32.66 c 1.91,2.76 5.7,3.45 8.46,1.54 2.76,-1.91 3.45,-5.7 1.54,-8.46 l -22.6,-32.66 c -1.25,-1.8 -3.29,-2.72 -5.33,-2.61"
         style="fill:#c21862;fill-opacity:1;fill-rule:nonzero;stroke:none"
         id="path36" />
      <path
         d="m 5101.41,3046.64 c -1.09,0.06 -2.18,0.41 -3.14,1.07 -2.76,1.91 -3.45,5.7 -1.54,8.46 l 22.61,32.66 c 1.91,2.77 5.69,3.46 8.45,1.55 2.77,-1.92 3.45,-5.7 1.55,-8.47 l -22.61,-32.66 c -1.24,-1.79 -3.29,-2.71 -5.32,-2.61"
         style="fill:#c21862;fill-opacity:1;fill-rule:nonzero;stroke:none"
         id="path38" />
      <path
         d="m 5154.59,3209.92 c 0.32,-1.04 0.37,-2.18 0.08,-3.31 -0.83,-3.25 -4.15,-5.21 -7.4,-4.37 l -38.47,9.88 c -3.25,0.84 -5.21,4.15 -4.38,7.41 0.84,3.25 4.15,5.21 7.41,4.37 l 38.46,-9.89 c 2.12,-0.54 3.69,-2.14 4.3,-4.09"
         style="fill:#c21862;fill-opacity:1;fill-rule:nonzero;stroke:none"
         id="path40" />
      <path
         d="m 5280.79,3054.66 c -1.32,0.07 -2.61,0.56 -3.68,1.49 l -29.93,26.11 c -2.53,2.21 -2.79,6.05 -0.58,8.58 2.21,2.53 6.05,2.79 8.58,0.59 l 29.93,-26.11 c 2.53,-2.21 2.79,-6.05 0.58,-8.58 -1.28,-1.47 -3.1,-2.17 -4.9,-2.08"
         style="fill:#c21862;fill-opacity:1;fill-rule:nonzero;stroke:none"
         id="path42" />
      <path
         d="m 5165.63,2995.25 c -0.78,0.55 -1.43,1.29 -1.89,2.19 -1.52,2.99 -0.32,6.65 2.67,8.17 l 35.42,17.98 c 2.98,1.52 6.65,0.33 8.17,-2.66 1.51,-3 0.32,-6.66 -2.67,-8.18 l -35.42,-17.98 c -2.09,-1.06 -4.51,-0.8 -6.28,0.48"
         style="fill:#c21862;fill-opacity:1;fill-rule:nonzero;stroke:none"
         id="path44" />
      <path
         d="m 5713.91,3097.81 c -1.32,0.07 -2.62,0.56 -3.69,1.49 l -29.93,26.11 c -2.53,2.21 -2.79,6.05 -0.58,8.57 2.2,2.54 6.05,2.8 8.58,0.59 l 29.93,-26.11 c 2.53,-2.21 2.8,-6.05 0.59,-8.58 -1.28,-1.46 -3.11,-2.17 -4.9,-2.07"
         style="fill:#c21862;fill-opacity:1;fill-rule:nonzero;stroke:none"
         id="path46" />
      <path
         d="m 5706.96,2965.83 c -1.31,0.06 -2.6,0.56 -3.67,1.48 l -29.93,26.11 c -2.53,2.21 -2.79,6.05 -0.59,8.58 2.21,2.53 6.05,2.79 8.58,0.59 l 29.93,-26.11 c 2.53,-2.21 2.79,-6.05 0.59,-8.58 -1.28,-1.46 -3.11,-2.17 -4.91,-2.07"
         style="fill:#c21862;fill-opacity:1;fill-rule:nonzero;stroke:none"
         id="path48" />
      <path
         d="m 5898.87,3136.61 c -1.09,0.06 -2.18,0.41 -3.14,1.08 -2.76,1.9 -3.44,5.69 -1.54,8.45 l 22.61,32.66 c 1.9,2.77 5.69,3.46 8.45,1.55 2.77,-1.92 3.45,-5.7 1.55,-8.47 l -22.61,-32.66 c -1.24,-1.79 -3.29,-2.72 -5.32,-2.61"
         style="fill:#c21862;fill-opacity:1;fill-rule:nonzero;stroke:none"
         id="path50" />
      <path
         d="m 5791.92,3010.34 c -1.09,0.06 -2.17,0.41 -3.13,1.07 -2.76,1.91 -3.46,5.7 -1.54,8.46 l 22.59,32.66 c 1.92,2.76 5.71,3.45 8.47,1.54 2.75,-1.91 3.45,-5.7 1.53,-8.46 l -22.59,-32.66 c -1.25,-1.8 -3.29,-2.72 -5.33,-2.61"
         style="fill:#c21862;fill-opacity:1;fill-rule:nonzero;stroke:none"
         id="path52" />
      <path
         d="m 6001.9,2943.32 c -1.09,0.05 -2.17,0.41 -3.13,1.07 -2.76,1.91 -3.46,5.7 -1.54,8.46 l 22.59,32.66 c 1.92,2.76 5.71,3.45 8.47,1.54 2.75,-1.91 3.45,-5.7 1.53,-8.46 l -22.59,-32.66 c -1.25,-1.8 -3.29,-2.72 -5.33,-2.61"
         style="fill:#c21862;fill-opacity:1;fill-rule:nonzero;stroke:none"
         id="path54" />
      <path
         d="m 5845.11,3173.62 c 0.32,-1.04 0.37,-2.18 0.08,-3.31 -0.84,-3.25 -4.15,-5.22 -7.41,-4.38 l -38.46,9.89 c -3.26,0.84 -5.22,4.15 -4.38,7.4 0.83,3.25 4.15,5.21 7.4,4.37 l 38.47,-9.88 c 2.12,-0.55 3.69,-2.14 4.3,-4.09"
         style="fill:#c21862;fill-opacity:1;fill-rule:nonzero;stroke:none"
         id="path56" />
      <path
         d="m 5972.62,3043.43 c -1.31,0.07 -2.61,0.56 -3.67,1.49 l -29.94,26.11 c -2.53,2.21 -2.79,6.05 -0.58,8.58 2.2,2.53 6.04,2.79 8.58,0.59 l 29.93,-26.12 c 2.53,-2.21 2.79,-6.04 0.58,-8.58 -1.27,-1.46 -3.1,-2.17 -4.9,-2.07"
         style="fill:#c21862;fill-opacity:1;fill-rule:nonzero;stroke:none"
         id="path58" />
      <path
         d="m 5856.13,2958.94 c -0.77,0.55 -1.42,1.29 -1.87,2.19 -1.53,3 -0.33,6.66 2.66,8.18 l 35.41,17.98 c 3,1.52 6.66,0.33 8.18,-2.67 1.52,-2.99 0.33,-6.65 -2.67,-8.17 l -35.41,-17.98 c -2.1,-1.07 -4.51,-0.8 -6.3,0.47"
         style="fill:#c21862;fill-opacity:1;fill-rule:nonzero;stroke:none"
         id="path60" />
      <path
         d="m 5481.6,3087.01 c -1.08,0.06 -2.18,0.41 -3.13,1.07 -2.77,1.91 -3.45,5.7 -1.55,8.46 l 22.61,32.66 c 1.91,2.76 5.69,3.45 8.46,1.54 2.76,-1.91 3.45,-5.7 1.53,-8.46 l -22.6,-32.66 c -1.24,-1.8 -3.29,-2.72 -5.32,-2.61"
         style="fill:#c21862;fill-opacity:1;fill-rule:nonzero;stroke:none"
         id="path62" />
      <path
         d="m 5379.62,2985.99 c -1.09,0.05 -2.18,0.41 -3.14,1.07 -2.76,1.91 -3.44,5.7 -1.54,8.46 l 22.61,32.66 c 1.9,2.76 5.69,3.45 8.46,1.54 2.76,-1.91 3.44,-5.7 1.53,-8.46 l -22.6,-32.66 c -1.25,-1.8 -3.29,-2.72 -5.32,-2.61"
         style="fill:#c21862;fill-opacity:1;fill-rule:nonzero;stroke:none"
         id="path64" />
      <path
         d="m 5393.85,3112.81 c 0.33,-1.04 0.37,-2.19 0.09,-3.31 -0.84,-3.25 -4.15,-5.21 -7.41,-4.38 l -38.46,9.89 c -3.26,0.83 -5.22,4.15 -4.38,7.4 0.83,3.25 4.14,5.21 7.4,4.37 l 38.47,-9.88 c 2.12,-0.55 3.69,-2.14 4.29,-4.09"
         style="fill:#c21862;fill-opacity:1;fill-rule:nonzero;stroke:none"
         id="path66" />
      <path
         d="m 5620.07,3066.03 c -1.31,0.07 -2.61,0.56 -3.67,1.49 l -29.94,26.11 c -2.52,2.2 -2.79,6.05 -0.58,8.58 2.21,2.53 6.04,2.79 8.57,0.58 l 29.93,-26.11 c 2.53,-2.2 2.8,-6.05 0.59,-8.57 -1.28,-1.47 -3.1,-2.17 -4.9,-2.08"
         style="fill:#c21862;fill-opacity:1;fill-rule:nonzero;stroke:none"
         id="path68" />
      <path
         d="m 5496.4,2976.37 -1.88,2.18 c -1.52,3 -0.33,6.66 2.67,8.18 l 35.41,17.98 c 3,1.52 6.66,0.33 8.17,-2.66 1.52,-3 0.33,-6.66 -2.66,-8.18 l -35.42,-17.98 c -2.09,-1.07 -4.51,-0.8 -6.29,0.48"
         style="fill:#c21862;fill-opacity:1;fill-rule:nonzero;stroke:none"
         id="path70" />
      <path
         d="m 5140.37,2805.94 c -1.09,0.05 -2.18,0.4 -3.13,1.07 -2.77,1.91 -3.46,5.7 -1.55,8.46 l 22.61,32.66 c 1.91,2.76 5.69,3.45 8.46,1.54 2.75,-1.91 3.45,-5.7 1.53,-8.46 l -22.6,-32.66 c -1.25,-1.8 -3.29,-2.72 -5.32,-2.61"
         style="fill:#c21862;fill-opacity:1;fill-rule:nonzero;stroke:none"
         id="path72" />
      <path
         d="m 5319.75,2813.96 c -1.31,0.06 -2.61,0.56 -3.68,1.48 l -29.93,26.12 c -2.53,2.2 -2.79,6.04 -0.58,8.57 2.2,2.53 6.04,2.79 8.58,0.59 l 29.93,-26.11 c 2.53,-2.21 2.8,-6.05 0.59,-8.58 -1.28,-1.46 -3.11,-2.17 -4.91,-2.07"
         style="fill:#c21862;fill-opacity:1;fill-rule:nonzero;stroke:none"
         id="path74" />
      <path
         d="m 5204.58,2754.54 c -0.77,0.55 -1.42,1.29 -1.87,2.19 -1.53,3 -0.34,6.65 2.66,8.18 l 35.41,17.98 c 3,1.52 6.66,0.32 8.18,-2.67 1.52,-2.99 0.33,-6.66 -2.67,-8.17 l -35.41,-17.99 c -2.1,-1.06 -4.51,-0.79 -6.3,0.48"
         style="fill:#c21862;fill-opacity:1;fill-rule:nonzero;stroke:none"
         id="path76" />
      <path
         d="m 5752.86,2857.1 c -1.31,0.07 -2.61,0.56 -3.67,1.49 l -29.93,26.11 c -2.53,2.21 -2.8,6.05 -0.59,8.58 2.21,2.53 6.05,2.79 8.58,0.58 l 29.94,-26.11 c 2.53,-2.2 2.78,-6.04 0.57,-8.58 -1.27,-1.46 -3.09,-2.16 -4.9,-2.07"
         style="fill:#c21862;fill-opacity:1;fill-rule:nonzero;stroke:none"
         id="path78" />
      <path
         d="m 5745.93,2725.12 c -1.32,0.07 -2.61,0.56 -3.68,1.49 l -29.94,26.11 c -2.52,2.21 -2.78,6.04 -0.57,8.58 2.2,2.53 6.04,2.79 8.57,0.58 l 29.93,-26.11 c 2.53,-2.21 2.8,-6.04 0.59,-8.58 -1.28,-1.46 -3.11,-2.17 -4.9,-2.07"
         style="fill:#c21862;fill-opacity:1;fill-rule:nonzero;stroke:none"
         id="path80" />
      <path
         d="m 5289.21,2682.6 c -1.31,0.07 -2.61,0.56 -3.67,1.49 l -29.93,26.11 c -2.53,2.21 -2.8,6.05 -0.59,8.58 2.21,2.53 6.04,2.79 8.57,0.59 l 29.94,-26.12 c 2.52,-2.21 2.79,-6.04 0.58,-8.57 -1.28,-1.47 -3.1,-2.18 -4.9,-2.08"
         style="fill:#c21862;fill-opacity:1;fill-rule:nonzero;stroke:none"
         id="path82" />
      <path
         d="m 5830.88,2769.63 c -1.09,0.06 -2.17,0.41 -3.14,1.07 -2.75,1.91 -3.44,5.7 -1.53,8.46 l 22.6,32.66 c 1.91,2.76 5.7,3.45 8.46,1.54 2.76,-1.91 3.45,-5.69 1.54,-8.46 l -22.61,-32.66 c -1.24,-1.8 -3.28,-2.71 -5.32,-2.61"
         style="fill:#c21862;fill-opacity:1;fill-rule:nonzero;stroke:none"
         id="path84" />
      <path
         d="m 5520.56,2846.3 c -1.09,0.06 -2.17,0.41 -3.13,1.07 -2.76,1.92 -3.46,5.7 -1.54,8.46 l 22.6,32.67 c 1.91,2.75 5.7,3.44 8.46,1.53 2.76,-1.91 3.45,-5.69 1.54,-8.45 l -22.6,-32.66 c -1.25,-1.81 -3.29,-2.72 -5.33,-2.62"
         style="fill:#c21862;fill-opacity:1;fill-rule:nonzero;stroke:none"
         id="path86" />
      <path
         d="m 5418.57,2745.28 c -1.08,0.06 -2.16,0.41 -3.13,1.07 -2.75,1.92 -3.45,5.7 -1.53,8.46 l 22.59,32.67 c 1.92,2.75 5.71,3.44 8.46,1.53 2.76,-1.91 3.46,-5.69 1.54,-8.45 l -22.59,-32.66 c -1.25,-1.81 -3.29,-2.72 -5.34,-2.62"
         style="fill:#c21862;fill-opacity:1;fill-rule:nonzero;stroke:none"
         id="path88" />
      <path
         d="m 5241.89,2896.97 c -1.08,0.05 -2.17,0.4 -3.13,1.07 -2.76,1.91 -3.45,5.7 -1.54,8.46 l 22.6,32.66 c 1.92,2.76 5.7,3.45 8.46,1.54 2.76,-1.92 3.45,-5.7 1.54,-8.46 l -22.6,-32.66 c -1.24,-1.8 -3.29,-2.72 -5.33,-2.61"
         style="fill:#c21862;fill-opacity:1;fill-rule:nonzero;stroke:none"
         id="path90" />
      <path
         d="m 5432.81,2872.1 c 0.32,-1.04 0.37,-2.18 0.08,-3.31 -0.83,-3.25 -4.15,-5.21 -7.4,-4.38 l -38.47,9.89 c -3.25,0.84 -5.2,4.15 -4.37,7.4 0.84,3.26 4.15,5.21 7.4,4.38 l 38.47,-9.89 c 2.11,-0.55 3.69,-2.14 4.29,-4.09"
         style="fill:#c21862;fill-opacity:1;fill-rule:nonzero;stroke:none"
         id="path92" />
      <path
         d="m 5659.03,2825.32 c -1.32,0.07 -2.6,0.56 -3.68,1.5 l -29.93,26.1 c -2.53,2.21 -2.79,6.05 -0.59,8.58 2.21,2.53 6.06,2.79 8.59,0.58 l 29.93,-26.1 c 2.53,-2.21 2.79,-6.05 0.59,-8.58 -1.28,-1.47 -3.11,-2.17 -4.91,-2.08"
         style="fill:#c21862;fill-opacity:1;fill-rule:nonzero;stroke:none"
         id="path94" />
      <path
         d="m 5535.36,2735.66 c -0.77,0.55 -1.42,1.29 -1.88,2.19 -1.53,2.99 -0.33,6.65 2.66,8.18 l 35.42,17.97 c 3,1.53 6.65,0.33 8.18,-2.66 1.52,-3 0.32,-6.66 -2.67,-8.18 l -35.42,-17.98 c -2.09,-1.06 -4.51,-0.8 -6.29,0.48"
         style="fill:#c21862;fill-opacity:1;fill-rule:nonzero;stroke:none"
         id="path96" />
      <path
         d="m 5140.37,2562.04 c -1.09,0.06 -2.18,0.41 -3.13,1.08 -2.77,1.9 -3.46,5.69 -1.55,8.45 l 22.61,32.66 c 1.91,2.77 5.69,3.46 8.46,1.55 2.75,-1.92 3.45,-5.7 1.53,-8.47 l -22.6,-32.66 c -1.25,-1.79 -3.29,-2.72 -5.32,-2.61"
         style="fill:#c21862;fill-opacity:1;fill-rule:nonzero;stroke:none"
         id="path98" />
      <path
         d="m 5319.75,2570.06 c -1.31,0.07 -2.61,0.56 -3.68,1.49 l -29.93,26.11 c -2.53,2.21 -2.79,6.05 -0.58,8.58 2.2,2.53 6.04,2.79 8.58,0.59 l 29.93,-26.11 c 2.53,-2.21 2.8,-6.05 0.59,-8.58 -1.28,-1.47 -3.11,-2.17 -4.91,-2.08"
         style="fill:#c21862;fill-opacity:1;fill-rule:nonzero;stroke:none"
         id="path100" />
      <path
         d="m 5204.58,2510.65 -1.87,2.19 c -1.53,2.99 -0.34,6.65 2.66,8.17 l 35.41,17.98 c 3,1.52 6.66,0.33 8.18,-2.66 1.52,-3 0.33,-6.66 -2.67,-8.18 l -35.41,-17.98 c -2.1,-1.06 -4.51,-0.8 -6.3,0.48"
         style="fill:#c21862;fill-opacity:1;fill-rule:nonzero;stroke:none"
         id="path102" />
      <path
         d="m 5752.86,2613.21 c -1.31,0.07 -2.61,0.56 -3.67,1.49 l -29.93,26.11 c -2.53,2.21 -2.8,6.05 -0.59,8.57 2.21,2.54 6.05,2.8 8.58,0.59 l 29.94,-26.11 c 2.53,-2.2 2.78,-6.05 0.57,-8.58 -1.27,-1.46 -3.09,-2.16 -4.9,-2.07"
         style="fill:#c21862;fill-opacity:1;fill-rule:nonzero;stroke:none"
         id="path104" />
      <path
         d="m 5745.93,2481.23 c -1.32,0.07 -2.61,0.56 -3.68,1.48 l -29.94,26.11 c -2.52,2.22 -2.78,6.05 -0.57,8.58 2.2,2.53 6.04,2.8 8.57,0.59 l 29.93,-26.11 c 2.53,-2.21 2.8,-6.05 0.59,-8.58 -1.28,-1.46 -3.11,-2.17 -4.9,-2.07"
         style="fill:#c21862;fill-opacity:1;fill-rule:nonzero;stroke:none"
         id="path106" />
      <path
         d="m 5830.88,2525.74 c -1.09,0.06 -2.17,0.41 -3.14,1.07 -2.75,1.91 -3.44,5.7 -1.53,8.46 l 22.6,32.66 c 1.91,2.76 5.7,3.45 8.46,1.54 2.76,-1.91 3.45,-5.7 1.54,-8.46 l -22.61,-32.66 c -1.24,-1.8 -3.28,-2.72 -5.32,-2.61"
         style="fill:#c21862;fill-opacity:1;fill-rule:nonzero;stroke:none"
         id="path108" />
      <path
         d="m 5520.56,2602.41 c -1.09,0.06 -2.17,0.41 -3.13,1.07 -2.76,1.91 -3.46,5.7 -1.54,8.46 l 22.6,32.66 c 1.91,2.76 5.7,3.45 8.46,1.54 2.76,-1.91 3.45,-5.7 1.54,-8.46 l -22.6,-32.66 c -1.25,-1.8 -3.29,-2.72 -5.33,-2.61"
         style="fill:#c21862;fill-opacity:1;fill-rule:nonzero;stroke:none"
         id="path110" />
      <path
         d="m 5418.57,2501.39 c -1.08,0.06 -2.16,0.41 -3.13,1.07 -2.75,1.91 -3.45,5.7 -1.53,8.46 l 22.59,32.66 c 1.92,2.76 5.71,3.45 8.46,1.54 2.76,-1.91 3.46,-5.7 1.54,-8.46 L 5423.91,2504 c -1.25,-1.8 -3.29,-2.72 -5.34,-2.61"
         style="fill:#c21862;fill-opacity:1;fill-rule:nonzero;stroke:none"
         id="path112" />
      <path
         d="m 5432.81,2628.21 c 0.32,-1.04 0.37,-2.18 0.08,-3.31 -0.83,-3.25 -4.15,-5.21 -7.4,-4.38 l -38.47,9.89 c -3.25,0.84 -5.2,4.15 -4.37,7.4 0.84,3.25 4.15,5.21 7.4,4.37 l 38.47,-9.89 c 2.11,-0.54 3.69,-2.13 4.29,-4.08"
         style="fill:#c21862;fill-opacity:1;fill-rule:nonzero;stroke:none"
         id="path114" />
      <path
         d="m 5659.03,2581.43 c -1.32,0.07 -2.6,0.56 -3.68,1.49 l -29.93,26.11 c -2.53,2.21 -2.79,6.05 -0.59,8.58 2.21,2.53 6.06,2.79 8.59,0.58 l 29.93,-26.11 c 2.53,-2.2 2.79,-6.04 0.59,-8.57 -1.28,-1.47 -3.11,-2.17 -4.91,-2.08"
         style="fill:#c21862;fill-opacity:1;fill-rule:nonzero;stroke:none"
         id="path116" />
      <path
         d="m 5881.06,2663.47 c -1.3,0.07 -2.6,0.56 -3.67,1.49 l -29.93,26.1 c -2.53,2.21 -2.79,6.05 -0.58,8.58 2.2,2.53 6.04,2.8 8.57,0.59 l 29.93,-26.11 c 2.53,-2.21 2.79,-6.05 0.59,-8.58 -1.28,-1.46 -3.11,-2.17 -4.91,-2.07"
         style="fill:#c21862;fill-opacity:1;fill-rule:nonzero;stroke:none"
         id="path118" />
      <path
         d="m 5535.36,2491.77 c -0.77,0.54 -1.42,1.28 -1.88,2.19 -1.53,2.99 -0.33,6.65 2.66,8.17 l 35.42,17.98 c 3,1.52 6.65,0.33 8.18,-2.66 1.52,-3 0.32,-6.66 -2.67,-8.18 l -35.42,-17.98 c -2.09,-1.07 -4.51,-0.8 -6.29,0.48"
         style="fill:#c21862;fill-opacity:1;fill-rule:nonzero;stroke:none"
         id="path120" />
      <path
         d="m 5283.86,2467.29 -1.88,2.18 c -1.52,3 -0.33,6.65 2.67,8.18 l 35.41,17.98 c 3,1.52 6.66,0.33 8.17,-2.67 1.53,-2.99 0.33,-6.65 -2.66,-8.17 l -35.42,-17.98 c -2.09,-1.07 -4.51,-0.8 -6.29,0.48"
         style="fill:#c21862;fill-opacity:1;fill-rule:nonzero;stroke:none"
         id="path122" />
      <path
         d="m 5140.37,2318.15 c -1.09,0.05 -2.18,0.4 -3.13,1.07 -2.77,1.91 -3.46,5.7 -1.55,8.46 l 22.61,32.66 c 1.91,2.77 5.69,3.45 8.46,1.54 2.75,-1.91 3.45,-5.7 1.53,-8.46 l -22.6,-32.66 c -1.25,-1.8 -3.29,-2.71 -5.32,-2.61"
         style="fill:#c21862;fill-opacity:1;fill-rule:nonzero;stroke:none"
         id="path124" />
      <path
         d="m 5319.75,2326.17 c -1.31,0.07 -2.61,0.56 -3.68,1.49 l -29.93,26.11 c -2.53,2.21 -2.79,6.04 -0.58,8.57 2.2,2.53 6.04,2.8 8.58,0.59 l 29.93,-26.1 c 2.53,-2.21 2.8,-6.06 0.59,-8.59 -1.28,-1.46 -3.11,-2.17 -4.91,-2.07"
         style="fill:#c21862;fill-opacity:1;fill-rule:nonzero;stroke:none"
         id="path126" />
      <path
         d="m 5204.58,2266.76 -1.87,2.19 c -1.53,2.99 -0.34,6.65 2.66,8.17 l 35.41,17.98 c 3,1.52 6.66,0.33 8.18,-2.67 1.52,-2.99 0.33,-6.65 -2.67,-8.17 l -35.41,-17.98 c -2.1,-1.07 -4.51,-0.8 -6.3,0.48"
         style="fill:#c21862;fill-opacity:1;fill-rule:nonzero;stroke:none"
         id="path128" />
      <path
         d="m 5752.86,2369.32 c -1.31,0.06 -2.61,0.55 -3.67,1.48 l -29.93,26.11 c -2.53,2.21 -2.8,6.05 -0.59,8.58 2.21,2.54 6.05,2.79 8.58,0.58 l 29.94,-26.1 c 2.53,-2.21 2.78,-6.05 0.57,-8.58 -1.27,-1.47 -3.09,-2.17 -4.9,-2.07"
         style="fill:#c21862;fill-opacity:1;fill-rule:nonzero;stroke:none"
         id="path130" />
      <path
         d="m 5860.02,2422.28 c -1.31,0.06 -2.61,0.55 -3.67,1.48 l -29.93,26.11 c -2.53,2.21 -2.8,6.05 -0.59,8.58 2.21,2.54 6.05,2.79 8.57,0.58 l 29.94,-26.1 c 2.53,-2.21 2.79,-6.06 0.58,-8.58 -1.28,-1.47 -3.1,-2.17 -4.9,-2.07"
         style="fill:#c21862;fill-opacity:1;fill-rule:nonzero;stroke:none"
         id="path132" />
      <path
         d="m 5745.93,2237.33 c -1.32,0.07 -2.61,0.56 -3.68,1.49 l -29.94,26.11 c -2.52,2.21 -2.78,6.05 -0.57,8.58 2.2,2.53 6.04,2.79 8.57,0.58 l 29.93,-26.1 c 2.53,-2.21 2.8,-6.06 0.59,-8.59 -1.28,-1.46 -3.11,-2.16 -4.9,-2.07"
         style="fill:#c21862;fill-opacity:1;fill-rule:nonzero;stroke:none"
         id="path134" />
      <path
         d="m 5830.88,2281.85 c -1.09,0.05 -2.17,0.41 -3.14,1.07 -2.75,1.9 -3.44,5.69 -1.53,8.46 l 22.6,32.65 c 1.91,2.77 5.7,3.46 8.46,1.55 2.76,-1.92 3.45,-5.7 1.54,-8.46 l -22.61,-32.67 c -1.24,-1.79 -3.28,-2.71 -5.32,-2.6"
         style="fill:#c21862;fill-opacity:1;fill-rule:nonzero;stroke:none"
         id="path136" />
      <path
         d="m 5520.56,2358.52 c -1.09,0.05 -2.17,0.41 -3.13,1.07 -2.76,1.9 -3.46,5.69 -1.54,8.46 l 22.6,32.66 c 1.91,2.76 5.7,3.45 8.46,1.54 2.76,-1.91 3.45,-5.7 1.54,-8.46 l -22.6,-32.66 c -1.25,-1.8 -3.29,-2.72 -5.33,-2.61"
         style="fill:#c21862;fill-opacity:1;fill-rule:nonzero;stroke:none"
         id="path138" />
      <path
         d="m 5418.57,2257.49 c -1.08,0.06 -2.16,0.41 -3.13,1.07 -2.75,1.92 -3.45,5.71 -1.53,8.46 l 22.59,32.67 c 1.92,2.76 5.71,3.44 8.46,1.54 2.76,-1.91 3.46,-5.7 1.54,-8.47 l -22.59,-32.65 c -1.25,-1.8 -3.29,-2.72 -5.34,-2.62"
         style="fill:#c21862;fill-opacity:1;fill-rule:nonzero;stroke:none"
         id="path140" />
      <path
         d="m 5432.81,2384.32 c 0.32,-1.05 0.37,-2.18 0.08,-3.31 -0.83,-3.26 -4.15,-5.22 -7.4,-4.38 l -38.47,9.88 c -3.25,0.84 -5.2,4.15 -4.37,7.41 0.84,3.25 4.15,5.21 7.4,4.37 l 38.47,-9.88 c 2.11,-0.55 3.69,-2.15 4.29,-4.09"
         style="fill:#c21862;fill-opacity:1;fill-rule:nonzero;stroke:none"
         id="path142" />
      <path
         d="m 5659.03,2337.54 c -1.32,0.07 -2.6,0.56 -3.68,1.48 l -29.93,26.12 c -2.53,2.2 -2.79,6.04 -0.59,8.57 2.21,2.53 6.06,2.79 8.59,0.59 l 29.93,-26.11 c 2.53,-2.2 2.79,-6.05 0.59,-8.58 -1.28,-1.47 -3.11,-2.17 -4.91,-2.07"
         style="fill:#c21862;fill-opacity:1;fill-rule:nonzero;stroke:none"
         id="path144" />
      <path
         d="m 5343.54,2199.06 c -1.31,0.07 -2.61,0.57 -3.68,1.5 l -29.93,26.1 c -2.53,2.21 -2.79,6.05 -0.58,8.58 2.2,2.53 6.04,2.8 8.58,0.59 l 29.93,-26.11 c 2.53,-2.21 2.79,-6.05 0.59,-8.58 -1.28,-1.46 -3.11,-2.17 -4.91,-2.08"
         style="fill:#c21862;fill-opacity:1;fill-rule:nonzero;stroke:none"
         id="path146" />
      <path
         d="m 5535.36,2247.87 c -0.77,0.55 -1.42,1.29 -1.88,2.2 -1.53,2.99 -0.33,6.65 2.66,8.16 l 35.42,17.99 c 3,1.51 6.65,0.32 8.18,-2.67 1.52,-2.99 0.32,-6.66 -2.67,-8.17 l -35.42,-17.99 c -2.09,-1.06 -4.51,-0.8 -6.29,0.48"
         style="fill:#c21862;fill-opacity:1;fill-rule:nonzero;stroke:none"
         id="path148" />
      <path
         d="m 5495.17,3322.38 v -0.1 l -0.7,0.07 z"
         style="fill:#4c4ba8;fill-opacity:1;fill-rule:nonzero;stroke:none"
         id="path150" />
      <path
         d="m 5019.05,2119.06 c 0,0 -93.89,-398.89 -111.29,-687.92 -17.39,-289.01 0,-667.628 0,-667.628 h 1156.46 c 0,0 -6.04,507.068 -33.31,796.088 -27.29,289.02 -93.98,580.71 -93.98,580.71 l -917.88,-21.25"
         style="fill:#321a30;fill-opacity:1;fill-rule:nonzero;stroke:none"
         id="path152" />
      <path
         d="m 5635.66,1389.67 c 8.03,0 41.48,14.71 41.48,14.71 l -105.7,382.69 -531.22,-187.38 95.01,-342.49 500.43,132.47"
         style="fill:#e7bca1;fill-opacity:1;fill-rule:nonzero;stroke:none"
         id="path154" />
      <path
         d="m 5494.47,3322.35 h -0.7 v 0.1 z"
         style="fill:#4c4ba8;fill-opacity:1;fill-rule:nonzero;stroke:none"
         id="path156" />
      <path
         d="m 5601.75,3277.66 c 0,0 -33.52,-55.49 -118.81,-51.01 -82.39,4.33 -113.95,66.09 -113.95,66.09 l 7.21,40.8 1.21,6.87 11.32,64.25 203.56,-16.41 2.11,-24.77 0.71,-8.12 6.64,-77.7"
         style="fill:#f46b78;fill-opacity:1;fill-rule:nonzero;stroke:none"
         id="path158" />
      <path
         d="m 5677.04,3185.12 c -54.17,-62.65 -162.36,-21.71 -195.61,27.94 -38.28,-45.89 -150.17,-75.26 -197.48,-7.27 -45.57,65.45 89.69,113.29 89.69,113.29 10.33,-61.63 83.59,-85.06 108.57,-91.09 25.5,3.4 100.3,19.03 117.01,79.23 0,0 129.99,-61.79 77.82,-122.1"
         style="fill:#f1e6f5;fill-opacity:1;fill-rule:nonzero;stroke:none"
         id="path160" />
      <path
         d="m 5594.4,3363.48 c -48.24,-36.73 -123.74,-47.69 -218.2,-29.94 l 1.21,6.87 11.32,64.25 203.56,-16.41 2.11,-24.77"
         style="fill:#321a30;fill-opacity:1;fill-rule:nonzero;stroke:none"
         id="path162" />
      <path
         d="m 5321.02,3576.99 c -48.95,-61.26 -144.9,-13.08 -133.76,71.06 10.1,76.32 95.06,59.66 95.06,59.66 l 38.7,-130.72"
         style="fill:#f1465b;fill-opacity:1;fill-rule:nonzero;stroke:none"
         id="path164" />
      <path
         d="m 5271.92,3546.4 c -0.82,-15.65 -14.17,-27.66 -29.81,-26.84 -15.65,0.83 -27.66,14.18 -26.84,29.82 0.82,15.64 14.17,27.66 29.82,26.84 15.64,-0.82 27.65,-14.17 26.83,-29.82"
         style="fill:#f89c2e;fill-opacity:1;fill-rule:nonzero;stroke:none"
         id="path166" />
      <path
         d="m 5278.96,3577.57 c -2.74,0.14 -5.13,2.14 -5.67,4.95 -6.98,36.73 -42.86,72.57 -43.22,72.93 -2.39,2.37 -2.42,6.22 -0.05,8.61 2.36,2.4 6.22,2.42 8.61,0.06 1.58,-1.57 38.93,-38.83 46.63,-79.32 0.63,-3.31 -1.54,-6.5 -4.84,-7.13 l -1.46,-0.1"
         style="fill:#d22e44;fill-opacity:1;fill-rule:nonzero;stroke:none"
         id="path168" />
      <path
         d="m 5265.07,3612.85 -1.92,0.42 c -16.37,6.46 -32.48,3.9 -32.64,3.88 -3.32,-0.56 -6.46,1.69 -7.01,5 -0.55,3.32 1.67,6.45 4.99,7.02 0.78,0.13 19.49,3.18 39.14,-4.57 3.12,-1.23 4.66,-4.77 3.42,-7.9 -0.98,-2.5 -3.43,-3.99 -5.98,-3.85"
         style="fill:#d22e44;fill-opacity:1;fill-rule:nonzero;stroke:none"
         id="path170" />
      <path
         d="m 5658.68,3559.23 c 42.26,-66.05 142.73,-28.2 140.47,56.64 -2.04,76.97 -88.28,69.32 -88.28,69.32 l -52.19,-125.96"
         style="fill:#f1465b;fill-opacity:1;fill-rule:nonzero;stroke:none"
         id="path172" />
      <path
         d="m 5763.49,3520.56 c -0.82,-15.65 -14.17,-27.66 -29.82,-26.84 -15.64,0.82 -27.66,14.17 -26.83,29.82 0.82,15.64 14.17,27.66 29.81,26.83 15.64,-0.82 27.66,-14.17 26.84,-29.81"
         style="fill:#f89c2e;fill-opacity:1;fill-rule:nonzero;stroke:none"
         id="path174" />
      <path
         d="m 5700.58,3555.41 -1.45,0.25 c -3.22,0.97 -5.05,4.37 -4.07,7.59 11.9,39.47 52.95,72.6 54.7,74 2.62,2.1 6.45,1.67 8.55,-0.96 2.1,-2.63 1.68,-6.46 -0.95,-8.57 -0.4,-0.31 -39.83,-32.19 -50.63,-67.99 -0.83,-2.74 -3.42,-4.47 -6.15,-4.32"
         style="fill:#d22e44;fill-opacity:1;fill-rule:nonzero;stroke:none"
         id="path176" />
      <path
         d="m 5718.09,3589.03 c -2.55,0.14 -4.84,1.87 -5.56,4.46 -0.9,3.24 1.01,6.6 4.25,7.5 20.34,5.64 38.63,0.65 39.4,0.43 3.24,-0.91 5.13,-4.27 4.22,-7.51 -0.91,-3.24 -4.26,-5.13 -7.5,-4.23 -0.16,0.05 -15.9,4.27 -32.87,-0.43 l -1.94,-0.22"
         style="fill:#d22e44;fill-opacity:1;fill-rule:nonzero;stroke:none"
         id="path178" />
      <path
         d="m 5269.05,3801.73 c 0,0 -29.53,-136.94 21.1,-275.06 45.88,-125.18 113.47,-166.99 187.47,-172.05 84.16,-5.75 263.09,33.69 256.2,434.82 -4.67,271.04 -428.14,283.75 -464.77,12.29"
         style="fill:#f46b78;fill-opacity:1;fill-rule:nonzero;stroke:none"
         id="path180" />
      <path
         d="m 5253.77,3741.32 c 0,0 -0.09,-85.78 35.59,-84.43 35.66,1.35 28.55,194.97 28.55,194.97 0,0 29.17,-48.32 87.16,-46.28 57.99,2.03 9.58,79.84 9.58,79.84 0,0 49.37,-76.85 98.27,-76.36 48.89,0.48 4.95,94.32 4.95,94.32 0,0 58.21,-106.8 104.16,-106.16 45.96,0.63 11.71,88.88 11.71,88.88 0,0 31.43,-97.27 65.85,-106.18 0,0 -16.14,-140.01 21.38,-136.05 37.52,3.95 32.01,161.72 19.22,210.19 -12.8,48.47 -88.47,172.46 -247.08,165.55 -158.61,-6.92 -226.65,-90.81 -239.34,-278.29"
         style="fill:#4d1646;fill-opacity:1;fill-rule:nonzero;stroke:none"
         id="path182" />
      <path
         d="m 5344.04,3727.64 c 0,0 34.63,43.19 90.54,46.09 9.09,0.47 16.69,-6.88 16.76,-15.99 l 0.01,-0.14 c 0.07,-9.22 -7.59,-16.57 -16.8,-16.22 -20.9,0.81 -57.71,-0.24 -90.51,-13.74"
         style="fill:#4d1646;fill-opacity:1;fill-rule:nonzero;stroke:none"
         id="path184" />
      <path
         d="m 5655.99,3711.24 c 0,0 -29.92,46.59 -85.22,55.33 -8.98,1.42 -17.31,-5.1 -18.34,-14.14 l -0.02,-0.14 c -1.03,-9.16 5.81,-17.29 15,-17.9 20.87,-1.39 57.38,-6.28 88.58,-23.15"
         style="fill:#4d1646;fill-opacity:1;fill-rule:nonzero;stroke:none"
         id="path186" />
      <path
         d="m 5491.85,3425.78 c -17.36,0.91 -30.74,7.69 -31.63,8.15 -2.5,1.29 -3.46,4.36 -2.17,6.85 1.29,2.49 4.34,3.47 6.83,2.17 0.43,-0.22 30.95,-15.49 56.85,-0.33 2.42,1.42 5.53,0.6 6.94,-1.81 1.43,-2.43 0.61,-5.54 -1.81,-6.95 -11.84,-6.94 -24.2,-8.65 -35.01,-8.08"
         style="fill:#f1465b;fill-opacity:1;fill-rule:nonzero;stroke:none"
         id="path188" />
      <path
         d="m 5516.6,3554.08 -0.4,0.04 -36.92,4.93 c -2.79,0.37 -4.74,2.93 -4.37,5.71 0.37,2.78 2.93,4.69 5.71,4.36 l 30.87,-4.13 -4.71,94.78 c -0.14,2.8 2.02,5.18 4.82,5.32 2.81,0.15 5.18,-2.01 5.32,-4.82 l 5.02,-100.87 c 0.08,-1.5 -0.52,-2.96 -1.63,-3.98 -1,-0.94 -2.34,-1.41 -3.71,-1.34"
         style="fill:#f1465b;fill-opacity:1;fill-rule:nonzero;stroke:none"
         id="path190" />
      <path
         d="m 5416.94,3518.77 c 45.23,-9.51 91.56,-15.04 154.31,-5.95 0,0 -8.87,-66.12 -82.66,-62.53 -62.74,3.04 -71.65,68.48 -71.65,68.48"
         style="fill:#f1e6f5;fill-opacity:1;fill-rule:nonzero;stroke:none"
         id="path192" />
      <path
         d="m 5420.95,3664.8 c -0.92,-17.59 -9.67,-31.43 -19.52,-30.9 -9.87,0.51 -17.1,15.19 -16.19,32.77 0.93,17.59 9.67,31.43 19.54,30.91 9.85,-0.51 17.1,-15.19 16.17,-32.78"
         style="fill:#321a30;fill-opacity:1;fill-rule:nonzero;stroke:none"
         id="path194" />
      <path
         d="m 5610.85,3654.81 c -0.93,-17.58 -9.67,-31.42 -19.53,-30.9 -9.86,0.52 -17.1,15.2 -16.17,32.78 0.91,17.59 9.66,31.43 19.52,30.91 9.86,-0.52 17.1,-15.2 16.18,-32.79"
         style="fill:#321a30;fill-opacity:1;fill-rule:nonzero;stroke:none"
         id="path196" />
      <path
         d="m 5352.27,3602.92 c -0.16,-3.02 -2.74,-5.34 -5.77,-5.19 -3.01,0.17 -5.34,2.74 -5.18,5.77 0.15,3.02 2.74,5.35 5.76,5.19 3.03,-0.16 5.35,-2.74 5.19,-5.77"
         style="fill:#f1465b;fill-opacity:1;fill-rule:nonzero;stroke:none"
         id="path198" />
      <path
         d="m 5378.31,3588.3 c -0.17,-3.02 -2.74,-5.35 -5.76,-5.18 -3.03,0.15 -5.35,2.73 -5.2,5.76 0.17,3.02 2.75,5.34 5.77,5.19 3.02,-0.16 5.35,-2.74 5.19,-5.77"
         style="fill:#f1465b;fill-opacity:1;fill-rule:nonzero;stroke:none"
         id="path200" />
      <path
         d="m 5350.58,3570.67 c -0.17,-3.02 -2.75,-5.35 -5.77,-5.19 -3.02,0.16 -5.35,2.74 -5.19,5.77 0.17,3.02 2.74,5.34 5.76,5.19 3.03,-0.17 5.35,-2.74 5.2,-5.77"
         style="fill:#f1465b;fill-opacity:1;fill-rule:nonzero;stroke:none"
         id="path202" />
      <path
         d="m 5392.31,3562.98 c -0.15,-3.02 -2.74,-5.34 -5.76,-5.18 -3.02,0.16 -5.35,2.74 -5.19,5.76 0.16,3.03 2.74,5.35 5.77,5.19 3.02,-0.16 5.34,-2.74 5.18,-5.77"
         style="fill:#f1465b;fill-opacity:1;fill-rule:nonzero;stroke:none"
         id="path204" />
      <path
         d="m 5420.62,3566.99 c -0.17,-3.03 -2.75,-5.35 -5.78,-5.19 -3.01,0.16 -5.34,2.74 -5.18,5.76 0.16,3.03 2.74,5.35 5.76,5.19 3.03,-0.16 5.35,-2.74 5.2,-5.76"
         style="fill:#f1465b;fill-opacity:1;fill-rule:nonzero;stroke:none"
         id="path206" />
      <path
         d="m 5409.29,3594.43 c -0.17,-3.02 -2.75,-5.34 -5.77,-5.18 -3.02,0.16 -5.35,2.74 -5.19,5.76 0.17,3.03 2.74,5.35 5.76,5.19 3.03,-0.16 5.35,-2.74 5.2,-5.77"
         style="fill:#f1465b;fill-opacity:1;fill-rule:nonzero;stroke:none"
         id="path208" />
      <path
         d="m 5647.66,3587.39 c -0.16,-3.02 2.16,-5.6 5.18,-5.76 3.03,-0.16 5.61,2.16 5.76,5.19 0.17,3.02 -2.15,5.6 -5.18,5.76 -3.02,0.16 -5.61,-2.16 -5.76,-5.19"
         style="fill:#f1465b;fill-opacity:1;fill-rule:nonzero;stroke:none"
         id="path210" />
      <path
         d="m 5620.22,3575.58 c -0.15,-3.02 2.17,-5.6 5.2,-5.76 3.02,-0.16 5.61,2.16 5.76,5.18 0.16,3.03 -2.17,5.61 -5.18,5.77 -3.03,0.16 -5.61,-2.16 -5.78,-5.19"
         style="fill:#f1465b;fill-opacity:1;fill-rule:nonzero;stroke:none"
         id="path212" />
      <path
         d="m 5645.96,3555.14 c -0.16,-3.03 2.17,-5.6 5.19,-5.77 3.02,-0.15 5.61,2.17 5.76,5.2 0.16,3.02 -2.16,5.6 -5.18,5.76 -3.03,0.16 -5.61,-2.17 -5.77,-5.19"
         style="fill:#f1465b;fill-opacity:1;fill-rule:nonzero;stroke:none"
         id="path214" />
      <path
         d="m 5603.64,3551.87 c -0.15,-3.02 2.17,-5.6 5.2,-5.76 3.02,-0.16 5.59,2.17 5.76,5.19 0.16,3.02 -2.17,5.6 -5.2,5.76 -3.01,0.16 -5.59,-2.16 -5.76,-5.19"
         style="fill:#f1465b;fill-opacity:1;fill-rule:nonzero;stroke:none"
         id="path216" />
      <path
         d="m 5575.92,3558.82 c -0.16,-3.02 2.17,-5.6 5.19,-5.76 3.02,-0.16 5.61,2.16 5.77,5.19 0.15,3.02 -2.17,5.6 -5.19,5.76 -3.03,0.16 -5.61,-2.16 -5.77,-5.19"
         style="fill:#f1465b;fill-opacity:1;fill-rule:nonzero;stroke:none"
         id="path218" />
      <path
         d="m 5590.07,3584.93 c -0.16,-3.03 2.16,-5.6 5.18,-5.76 3.03,-0.16 5.61,2.16 5.77,5.19 0.16,3.02 -2.16,5.6 -5.19,5.76 -3.03,0.16 -5.61,-2.17 -5.76,-5.19"
         style="fill:#f1465b;fill-opacity:1;fill-rule:nonzero;stroke:none"
         id="path220" />
      <path
         d="m 5399.44,3732.55 c -44.83,2.36 -83.23,-32.2 -85.58,-77.04 -2.37,-44.83 32.19,-83.23 77.04,-85.59 44.83,-2.36 83.23,32.2 85.58,77.04 2.37,44.84 -32.19,83.24 -77.04,85.59 z m -8.97,-170.74 c -49.32,2.59 -87.33,44.82 -84.73,94.13 2.59,49.31 44.82,87.32 94.13,84.73 49.32,-2.59 87.33,-44.82 84.73,-94.13 -2.59,-49.31 -44.81,-87.33 -94.13,-84.73"
         style="fill:#f1e6f5;fill-opacity:1;fill-rule:nonzero;stroke:none"
         id="path222" />
      <path
         d="m 5614.75,3721.24 c -44.85,2.35 -83.24,-32.21 -85.6,-77.05 -2.35,-44.83 32.21,-83.23 77.04,-85.59 44.85,-2.35 83.23,32.21 85.6,77.04 2.35,44.84 -32.21,83.24 -77.04,85.6 z m -8.98,-170.75 c -49.31,2.59 -87.32,44.82 -84.73,94.13 2.59,49.32 44.82,87.32 94.14,84.73 49.3,-2.59 87.31,-44.82 84.72,-94.14 -2.6,-49.31 -44.82,-87.31 -94.13,-84.72"
         style="fill:#f1e6f5;fill-opacity:1;fill-rule:nonzero;stroke:none"
         id="path224" />
      <path
         d="m 5692.09,3660.64 c -0.98,0.05 -1.93,0.45 -2.68,1.2 -1.57,1.6 -1.56,4.17 0.03,5.75 1.18,1.16 29.11,28.25 68.37,19.66 2.19,-0.48 3.58,-2.65 3.1,-4.84 -0.48,-2.19 -2.65,-3.57 -4.84,-3.1 -35,7.66 -60.65,-17.24 -60.9,-17.5 -0.85,-0.83 -1.98,-1.22 -3.08,-1.17"
         style="fill:#f1e6f5;fill-opacity:1;fill-rule:nonzero;stroke:none"
         id="path226" />
      <path
         d="m 5316.89,3682.04 c -1.05,0.05 -2.09,0.52 -2.84,1.38 -0.44,0.49 -30.69,34.15 -70.84,23.01 -2.16,-0.6 -4.4,0.66 -5,2.83 -0.6,2.16 0.67,4.4 2.83,5 45.24,12.55 77.77,-23.93 79.13,-25.5 1.47,-1.68 1.3,-4.25 -0.38,-5.73 -0.83,-0.72 -1.88,-1.05 -2.9,-0.99"
         style="fill:#f1e6f5;fill-opacity:1;fill-rule:nonzero;stroke:none"
         id="path228" />
      <path
         d="m 5480.98,3654.94 -0.27,0.03 c -2.22,0.25 -3.82,2.28 -3.56,4.5 0.84,7.09 7.64,20.21 27.4,19.17 19.77,-1.04 25.17,-14.8 25.25,-21.93 0.03,-2.25 -1.76,-4.09 -4.01,-4.12 -2.25,-0.02 -4.08,1.77 -4.11,4.02 -0.04,1.3 -0.88,13.04 -17.55,13.92 -17.19,0.9 -18.85,-11.48 -18.91,-12 -0.25,-2.14 -2.12,-3.7 -4.24,-3.59"
         style="fill:#f1e6f5;fill-opacity:1;fill-rule:nonzero;stroke:none"
         id="path230" />
      <path
         d="m 5167.34,1238.62 503.11,121.77 -119.08,385.2 -479.03,-160.4 95,-346.57"
         style="fill:#fddec7;fill-opacity:1;fill-rule:nonzero;stroke:none"
         id="path232" />
      <path
         d="m 4907.76,2605.96 113.39,-508.52 187.68,-551.22 169.64,53.47 -167.82,638.34 -80.24,425.62 -222.65,-57.69"
         style="fill:#f46b78;fill-opacity:1;fill-rule:nonzero;stroke:none"
         id="path234" />
      <path
         d="m 4995.67,3217.73 c 0,0 81.69,-105.38 133.88,-298.36 22.41,-82.88 29.97,-163.48 31.31,-228.48 1.68,-81.93 -159.05,-106.34 -159.05,-106.34 -89.73,-12.83 -175.85,15.35 -187.02,105.3 -7.91,63.55 -11.55,141.03 -2.03,223.52 24.09,208.74 182.91,304.36 182.91,304.36"
         style="fill:#e2333f;fill-opacity:1;fill-rule:nonzero;stroke:none"
         id="path236" />
      <path
         d="m 5378.47,1599.69 -176.02,-23.76 19.58,-240.63 17.26,-77.64 c 2.68,-12.09 14.49,-19.87 26.67,-17.55 11.53,2.19 19.55,12.76 18.55,24.46 l -6.49,76.68 7.95,0.84 19.37,-84.38 c 2.84,-12.35 14.58,-20.51 27.13,-18.87 13.33,1.74 22.78,13.86 21.23,27.2 l -8.13,69.98 17.98,-78.31 c 2.84,-12.35 14.58,-20.51 27.13,-18.87 13.32,1.74 22.79,13.86 21.23,27.2 l -10.27,88.33 0.57,0.06 17.23,-82.79 c 2.38,-11.38 13.55,-18.63 24.91,-16.18 9.61,2.08 16.48,10.59 16.48,20.44 v 84.76 l -82.36,239.03"
         style="fill:#f46b78;fill-opacity:1;fill-rule:nonzero;stroke:none"
         id="path238" />
      <path
         d="m 5910.68,3200.8 c 0,0 -35.37,-373.76 34.36,-558.42 0,0 133.51,52.18 184.36,93.51 50.85,41.34 72.26,97.54 42.82,196.55 -29.44,99.02 -164.49,269.11 -261.54,268.36"
         style="fill:#e2333f;fill-opacity:1;fill-rule:nonzero;stroke:none"
         id="path240" />
      <path
         d="m 4583.28,3474.82 c 22.58,-6.62 59.21,-26.51 89.16,-44.07 l 45.14,86.72 -0.07,0.03 c 2.3,4.83 7.44,14.68 14.27,27.25 l 0.01,0.02 c 22.84,42.09 64.68,115.02 83.32,135.19 24.2,26.18 37.73,0.18 27.68,-17.91 -7.75,-13.95 -47.21,-108.44 -64.85,-150.9 l 1.65,-1.21 c 20.38,38.44 69.18,124.89 89.74,147.13 24.19,26.18 37.73,0.18 27.68,-17.91 -8.68,-15.62 -57.12,-132.18 -70.15,-163.65 l 1.27,-0.92 c 22.31,41.38 66.12,118.1 85.3,138.86 24.2,26.18 37.73,0.18 27.68,-17.91 -6.63,-11.94 -36.49,-82.85 -56.02,-129.69 23.21,34.16 51.11,72.98 64.96,85.74 24.04,22.15 34.5,-2.61 23.98,-18.4 -7.19,-10.81 -41.91,-77.81 -63.07,-118.96 l -65.94,-138.85 -0.14,-123.5 -182.29,36.01 20.88,84.99 -41.7,89.61 c -21.73,24.55 -51.8,57.69 -66.84,70.52 -25.12,21.45 -34.98,54.5 8.35,41.81"
         style="fill:#f8a190;fill-opacity:1;fill-rule:nonzero;stroke:none"
         id="path242" />
      <path
         d="m 4870.56,3421.39 -2.02,0.83 -124.75,91.51 c -2.01,1.47 -2.45,4.3 -0.98,6.3 1.48,2.02 4.3,2.46 6.31,0.97 l 124.77,-91.51 c 2.01,-1.47 2.44,-4.29 0.96,-6.3 -1.02,-1.4 -2.69,-2.03 -4.29,-1.8"
         style="fill:#f46d81;fill-opacity:1;fill-rule:nonzero;stroke:none"
         id="path244" />
      <path
         d="m 4730.2,3356.18 c -1.97,0.28 -3.58,1.86 -3.82,3.94 -4.44,37.53 -37.48,60.47 -37.83,60.69 -2.05,1.41 -2.58,4.21 -1.18,6.27 1.4,2.06 4.2,2.6 6.26,1.2 1.51,-1.02 36.79,-25.39 41.7,-67.11 0.3,-2.47 -1.47,-4.71 -3.95,-5.01 l -1.18,0.02"
         style="fill:#f46d81;fill-opacity:1;fill-rule:nonzero;stroke:none"
         id="path246" />
      <path
         d="M 4384.82,3005.5 3210,3013.52 c 0,0 12.81,146.47 83.93,174.37 28.74,11.26 94.64,43.5 163.02,77.93 25.39,12.77 51.1,25.85 75.38,38.27 2.56,1.31 5.11,2.62 7.63,3.91 19.89,10.21 38.69,19.86 55.32,28.46 36.62,18.91 62.84,32.6 67.82,35.21 l 0.86,0.44 8.96,-2.08 c 11.22,-2.6 22.49,-4.84 33.78,-6.69 11.18,-1.9 22.39,-3.43 33.62,-4.6 61.97,-6.52 124.75,-2.69 185.72,11.51 l 0.31,0.07 c 0,0 27.5,-14.41 67.9,-35.34 16.79,-8.72 35.84,-18.59 56.06,-29 2.56,-1.31 5.12,-2.63 7.71,-3.95 9.89,-5.08 20.03,-10.29 30.29,-15.54 10.92,-5.6 21.99,-11.28 33.09,-16.9 75.48,-38.43 151.07,-76 181.9,-88.59 70.7,-28.87 81.52,-175.5 81.52,-175.5"
         style="fill:#f03f51;fill-opacity:1;fill-rule:nonzero;stroke:none"
         id="path248" />
      <path
         d="m 4058.02,3302.03 c -4.11,-11.73 -8.81,-23.7 -14.23,-35.66 -21.37,-47.19 -49.22,-84.74 -82.81,-111.63 -42.11,-33.71 -93.27,-50.59 -152.07,-50.19 -122.86,0.83 -198.19,73.34 -239.75,133.99 -15.54,22.68 -27.63,45.45 -36.83,65.55 2.56,1.31 5.11,2.62 7.63,3.91 9.04,-19.84 21.01,-42.38 36.4,-64.84 58.78,-85.65 137.05,-129.4 232.6,-130.05 103.24,-0.71 179.61,52.06 227.02,156.78 5.48,12.11 10.23,24.23 14.33,36.09 2.56,-1.31 5.12,-2.63 7.71,-3.95"
         style="fill:#c32838;fill-opacity:1;fill-rule:nonzero;stroke:none"
         id="path250" />
      <path
         d="m 3994.25,3334.98 c -15.23,-63.56 -71.93,-160.03 -195.71,-159.18 -135.87,0.92 -186.18,111.22 -203.26,160.66 36.62,18.91 62.84,32.6 67.82,35.21 l 0.86,0.44 8.96,-2.08 c 11.22,-2.6 22.49,-4.84 33.78,-6.69 11.18,-1.9 22.39,-3.43 33.62,-4.6 61.97,-6.52 124.75,-2.69 185.72,11.51 l 0.31,0.07 c 0,0 27.5,-14.41 67.9,-35.34"
         style="fill:#fef4eb;fill-opacity:1;fill-rule:nonzero;stroke:none"
         id="path252" />
      <path
         d="m 3932.12,3340.36 c 0,0 -23.55,-72.27 -129.41,-71.55 -123.48,0.85 -152.1,66.88 -152.1,66.88 10.92,28.37 18.48,54.66 23.61,78.16 h 0.03 c 9.45,43.06 10.96,76.93 10.54,97.71 l 217.01,7.11 c 1.88,-18.38 4.99,-40.03 8.53,-61.82 9.42,-57.84 21.79,-116.49 21.79,-116.49"
         style="fill:#f8a190;fill-opacity:1;fill-rule:nonzero;stroke:none"
         id="path254" />
      <path
         d="m 3910.33,3456.85 c -33.78,-23.14 -107.49,-57.44 -236.08,-43 9.45,43.06 10.96,76.93 10.54,97.71 l 217.01,7.11 c 1.88,-18.38 4.99,-40.03 8.53,-61.82"
         style="fill:#321a30;fill-opacity:1;fill-rule:nonzero;stroke:none"
         id="path256" />
      <path
         d="m 3603.91,3795.04 c 0,0 -66.51,91.84 -119.1,38.11 -52.59,-53.73 46.83,-242.78 138.5,-202.37 l -19.4,164.26"
         style="fill:#f8a190;fill-opacity:1;fill-rule:nonzero;stroke:none"
         id="path258" />
      <path
         d="m 3571.16,3687.27 c -2.28,0.01 -4.26,1.7 -4.56,4.02 -8.4,63.56 -58.6,102.88 -59.1,103.27 -2.03,1.56 -2.41,4.47 -0.85,6.5 1.56,2.03 4.47,2.41 6.5,0.84 2.19,-1.69 53.75,-42.08 62.64,-109.39 0.34,-2.54 -1.45,-4.87 -3.99,-5.21 l -0.64,-0.03"
         style="fill:#f46d81;fill-opacity:1;fill-rule:nonzero;stroke:none"
         id="path260" />
      <path
         d="m 3557.4,3732.96 c -1.48,0.01 -2.94,0.74 -3.83,2.07 -6.67,10.01 -26.81,11.17 -33.99,10.77 -2.57,-0.17 -4.74,1.81 -4.88,4.37 -0.15,2.56 1.81,4.75 4.37,4.89 1.28,0.07 31.28,1.54 42.22,-14.89 1.42,-2.13 0.84,-5.01 -1.29,-6.43 l -2.6,-0.78"
         style="fill:#f46d81;fill-opacity:1;fill-rule:nonzero;stroke:none"
         id="path262" />
      <path
         d="m 4012.92,3792.25 c 0,0 67.76,90.92 119.61,36.49 51.86,-54.45 -50.14,-242.12 -141.25,-200.47 l 21.64,163.98"
         style="fill:#f8a190;fill-opacity:1;fill-rule:nonzero;stroke:none"
         id="path264" />
      <path
         d="m 4044.2,3684.04 -0.63,0.05 c -2.55,0.37 -4.3,2.72 -3.93,5.26 9.8,67.18 61.9,106.87 64.12,108.52 2.05,1.54 4.95,1.12 6.49,-0.93 1.54,-2.05 1.12,-4.95 -0.92,-6.49 -0.52,-0.38 -51.27,-39.15 -60.51,-102.44 -0.33,-2.32 -2.34,-3.99 -4.62,-3.97"
         style="fill:#f46d81;fill-opacity:1;fill-rule:nonzero;stroke:none"
         id="path266" />
      <path
         d="m 4058.57,3729.55 -2.58,0.81 c -2.11,1.45 -2.66,4.34 -1.2,6.45 11.17,16.28 41.15,14.39 42.43,14.31 2.55,-0.18 4.47,-2.39 4.29,-4.94 -0.16,-2.56 -2.41,-4.51 -4.94,-4.32 -7.2,0.48 -27.35,-0.42 -34.14,-10.3 -0.91,-1.32 -2.37,-2.02 -3.86,-2.01"
         style="fill:#f46d81;fill-opacity:1;fill-rule:nonzero;stroke:none"
         id="path268" />
      <path
         d="m 3853.22,4076.73 c -191.34,1.39 -310.86,-96.96 -291.05,-324.7 11.82,-135.93 80.55,-304.48 241.71,-309.37 167.96,-5.1 236.62,177.35 261.55,315.96 22.82,126.87 -40.82,268.09 -163.03,309.08 -8.46,2.84 -38.44,8.95 -49.18,9.03"
         style="fill:#f8a190;fill-opacity:1;fill-rule:nonzero;stroke:none"
         id="path270" />
      <path
         d="m 3560.24,3793.59 c 0,0 -20.78,215.9 -21.11,263.72 -0.79,116.28 116.97,180.7 289.14,179.16 138.86,-1.24 155.56,-62.16 166.41,-111.45 0,0 102.63,-3.34 117.81,-75.02 15.17,-71.69 -51.46,-287.4 -51.46,-287.4 0,0 -21.51,49.9 -36.67,121.59 -15.18,71.69 -35.25,115.63 -79.98,116.84 -44.74,1.2 -100.68,-0.65 -161.32,-36.03 -60.64,-35.38 -121.07,-39.44 -163.36,-7.84 0,0 -12.1,-107.97 -59.46,-163.57"
         style="fill:#4d1646;fill-opacity:1;fill-rule:nonzero;stroke:none"
         id="path272" />
      <path
         d="m 3660.18,3673.48 c -0.36,0 -0.71,0 -1.07,0 -36.97,0.25 -66.84,13.62 -66.73,29.85 0.1,16.08 29.59,28.94 66.07,28.94 0.35,0 0.7,0 1.06,0 36.97,-0.25 66.85,-13.62 66.74,-29.85 -0.11,-16.08 -29.6,-28.94 -66.07,-28.94"
         style="fill:#f68688;fill-opacity:1;fill-rule:nonzero;stroke:none"
         id="path274" />
      <path
         d="m 3975.09,3671.33 c -0.35,0 -0.69,0 -1.05,0 -36.97,0.26 -66.84,13.62 -66.74,29.85 0.11,16.08 29.6,28.94 66.08,28.94 0.35,0 0.71,0 1.06,0 36.98,-0.25 66.85,-13.62 66.74,-29.85 -0.11,-16.08 -29.6,-28.94 -66.09,-28.94"
         style="fill:#f68688;fill-opacity:1;fill-rule:nonzero;stroke:none"
         id="path276" />
      <path
         d="m 4066.95,3790.13 c 0,0 -2.17,-105.02 -34.35,-236.94 -51.61,-211.45 -223.55,-182.06 -223.55,-182.06 0,0 -168.97,-27.06 -217.69,185.07 -30.38,132.34 -31.12,237.39 -31.12,237.39 l 27.8,45.72 c 0,0 18.01,-182.6 87.65,-214.69 0,0 31.36,47 135.1,2.17 104.35,43.41 138.42,-4.04 138.42,-4.04 70.06,31.14 90.58,213.48 90.58,213.48 l 27.16,-46.1"
         style="fill:#4d1646;fill-opacity:1;fill-rule:nonzero;stroke:none"
         id="path278" />
      <path
         d="m 3818.67,3644.68 c -7.99,0.06 -16.73,2.21 -26.33,6.45 -2.7,1.2 -4.28,4.04 -3.88,6.96 l 14.14,103.04 c 0.5,3.63 3.85,6.16 7.45,5.66 3.62,-0.5 6.15,-3.83 5.66,-7.45 l -13.43,-97.97 c 13.13,-4.92 23.31,-4.56 31.73,1.04 3.05,2.02 7.16,1.19 9.18,-1.85 2.02,-3.05 1.19,-7.15 -1.85,-9.18 -6.81,-4.52 -14.33,-6.75 -22.67,-6.7"
         style="fill:#f46d81;fill-opacity:1;fill-rule:nonzero;stroke:none"
         id="path280" />
      <path
         d="m 3805.86,3564.64 c -37.92,0.26 -66.58,16.11 -67.07,16.39 -3.18,1.8 -4.29,5.84 -2.49,9.02 1.81,3.18 5.84,4.29 9.02,2.48 3.2,-1.79 76.2,-41.77 140.02,16.46 2.7,2.46 6.89,2.27 9.35,-0.43 2.47,-2.7 2.27,-6.89 -0.42,-9.35 -29.6,-27 -61.36,-34.76 -88.41,-34.57"
         style="fill:#653c68;fill-opacity:1;fill-rule:nonzero;stroke:none"
         id="path282" />
      <path
         d="m 3816.34,3526.72 c -14.98,0.1 -26.96,3.84 -27.8,4.11 -3.47,1.11 -5.4,4.83 -4.28,8.32 1.11,3.47 4.83,5.39 8.31,4.29 0.29,-0.1 29.59,-9.16 50.31,2.38 3.19,1.78 7.23,0.63 9,-2.57 1.78,-3.19 0.63,-7.22 -2.56,-9 -10.61,-5.9 -22.53,-7.6 -32.98,-7.53"
         style="fill:#653c68;fill-opacity:1;fill-rule:nonzero;stroke:none"
         id="path284" />
      <path
         d="m 3678.58,3821.76 c 14.3,7.56 35.17,16.87 55.42,19.69 10.88,1.51 17.78,12.39 14.15,22.75 l -0.73,2.1 c -2.63,7.48 -10.02,12.23 -17.91,11.44 -18.06,-1.8 -50.09,-7.9 -71.09,-28.55 -4.55,-4.47 -6.16,-11.15 -4.29,-17.25 3.16,-10.31 14.92,-15.22 24.45,-10.18"
         style="fill:#321a30;fill-opacity:1;fill-rule:nonzero;stroke:none"
         id="path286" />
      <path
         d="m 3952.49,3819.89 c -14.2,7.75 -34.93,17.35 -55.15,20.44 -10.85,1.66 -17.6,12.63 -13.83,22.95 l 0.76,2.09 c 2.73,7.44 10.17,12.08 18.06,11.19 18.04,-2.04 49.97,-8.58 70.7,-29.51 4.48,-4.54 6,-11.24 4.05,-17.31 -3.31,-10.27 -15.13,-15.01 -24.59,-9.85"
         style="fill:#321a30;fill-opacity:1;fill-rule:nonzero;stroke:none"
         id="path288" />
      <path
         d="m 3731.4,3770.84 c 0.18,-17.93 -6.53,-32.54 -14.99,-32.63 -8.47,-0.09 -15.49,14.37 -15.68,32.31 -0.19,17.94 6.52,32.55 14.99,32.63 8.46,0.09 15.49,-14.37 15.68,-32.31"
         style="fill:#321a30;fill-opacity:1;fill-rule:nonzero;stroke:none"
         id="path290" />
      <path
         d="m 3891.66,3769.75 c -0.44,-17.93 6.07,-32.63 14.54,-32.84 8.47,-0.2 15.68,14.17 16.11,32.1 0.44,17.93 -6.07,32.63 -14.54,32.84 -8.46,0.2 -15.68,-14.17 -16.11,-32.1"
         style="fill:#321a30;fill-opacity:1;fill-rule:nonzero;stroke:none"
         id="path292" />
      <path
         d="m 3210,3013.52 53.35,-538.12 34.97,-802.07 h 995.52 l 32.11,832.38 58.87,499.79 c 0,0 -1033,91.76 -1174.82,8.02"
         style="fill:#f03f51;fill-opacity:1;fill-rule:nonzero;stroke:none"
         id="path294" />
      <path
         d="m 3298.32,1673.33 -50.29,-909.818 h 535.92 l 34.38,581.998 64.12,8.03 49.67,-590.028 h 487.49 l -121.08,1031.298 -1006.88,31.53 6.67,-153.01"
         style="fill:#321a30;fill-opacity:1;fill-rule:nonzero;stroke:none"
         id="path296" />
      <path
         d="m 3523.31,1510.58 1.4,-0.77 0.23,-0.31 z m 72.85,-27.27 -27.36,61.1 c -5.1,11.4 -13.93,20.73 -25.04,26.44 l -71.17,36.67 -66.61,45.44 -69.06,50.53 -37.05,42.1 -108.79,-141.95 8.59,-7.94 c 0,0 0,0 19.36,-37.05 19.37,-37.05 62.32,-76.63 62.32,-76.63 l 48.11,-35.28 37.29,-30.42 28.4,-35.81 c 8.47,-10.68 23.67,-13.14 35.08,-5.69 4.85,3.17 6.65,9.41 4.22,14.67 l -28.62,62.03 23.72,-17.5 33.04,-42.89 c 7.68,-9.98 21.79,-12.26 32.23,-5.24 7.05,4.74 9.67,13.88 6.19,21.63 l -27.04,60.37 15.37,-10.99 29.62,-38.46 c 9.6,-12.47 27.23,-15.33 40.28,-6.56 4.37,2.94 5.99,8.61 3.84,13.42 l -37.11,82.87 31.77,-41.26 c 7.68,-9.97 21.79,-12.26 32.23,-5.24 7.05,4.75 9.67,13.89 6.19,21.64"
         style="fill:#f8a190;fill-opacity:1;fill-rule:nonzero;stroke:none"
         id="path298" />
      <path
         d="m 3132.29,2081.44 -64.33,82.86 262.47,641.01 -36.5,382.58 c 0,0 -192.27,-17.27 -294.66,-317 -102.38,-299.72 -226.25,-693.11 -226.25,-693.11 31.32,-346.54 418.06,-618.18 418.06,-618.18 l 144.71,176.62 -203.5,345.22"
         style="fill:#f03f51;fill-opacity:1;fill-rule:nonzero;stroke:none"
         id="path300" />
      <path
         d="m 4889.04,3187.89 -260.91,18.38 c 0,0 -6.73,-242.04 -24.1,-412.98 -64.55,119.89 -148.46,225.5 -171.27,272.96 -58.87,122.55 -240.35,167.5 -240.35,167.5 0,0 10.21,-334.76 90.49,-527.44 46.5,-111.59 134.74,-259.68 200.77,-364.55 104.53,-166.04 361.25,-124.77 402.89,66.96 0.9,4.12 1.73,8.32 2.48,12.59 36.13,204.72 0,766.58 0,766.58"
         style="fill:#f03f51;fill-opacity:1;fill-rule:nonzero;stroke:none"
         id="path302" />
      <path
         d="m 2953.32,2772.58 c 0,0 205.9,-406.53 287.4,-586.5 l -193.56,-156.2 -346.35,509.35 252.51,233.35"
         style="fill:#a1444b;fill-opacity:1;fill-rule:nonzero;stroke:none"
         id="path304" />
      <path
         d="m 3104.89,2147.03 -305.61,-473.7 125.64,-159.6 c 0,0 349.75,322.6 370.13,438.05 20.37,115.46 -66.39,260.38 -66.39,260.38 l -123.77,-65.13"
         style="fill:#a1444b;fill-opacity:1;fill-rule:nonzero;stroke:none"
         id="path306" />
      <path
         d="m 3041.45,1303.95 31.74,7.1 c 9.43,2.11 15.21,11.64 12.74,20.97 l -0.7,2.66 c -3.44,12.98 -14.93,22.21 -28.35,22.78 l -64.28,2.73 c 0,0 -7.34,228.74 -29.36,247.09 l -2.28,0.91 -162.45,65.14 -18.75,-269.11 0.35,-0.15 h -0.35 c 0,0 30.58,-111.32 39.14,-127.21 3.67,-6.82 31.43,-9.14 63.38,-9.57 1.01,-2.59 1.94,-4.84 2.67,-6.2 8.57,-15.89 148.01,-7.33 166.36,-7.33 15.93,0 21.66,35.89 -9.86,50.19"
         style="fill:#a1444b;fill-opacity:1;fill-rule:nonzero;stroke:none"
         id="path308" />
      <path
         d="m 1439.53,2763.06 -191.5,-554.49 239.21,-90.98 c 0,0 285.44,450.33 291.26,509.62 5.82,59.29 -67.18,128.39 -67.18,128.39 l -271.79,7.46"
         style="fill:#7a3134;fill-opacity:1;fill-rule:nonzero;stroke:none"
         id="path310" />
      <path
         d="m 1866.22,3520.93 c 0,0 -66.59,9.86 -72.28,-46.67 -5.7,-56.52 34.01,-65.87 34.01,-65.87 0,0 -62.96,61.35 -100.91,12.27 -37.95,-49.08 32.8,-83.03 32.8,-83.03 0,0 -78.2,35.85 -89.1,-16.17 -10.9,-52.01 52.04,-79.2 52.04,-79.2 0,0 -65.88,0.14 -61.36,-28.81 4.52,-28.95 65.88,-0.14 65.88,-0.14 0,0 -91.01,-23.63 -71.21,-95.39 19.79,-71.77 89.65,-25.28 89.65,-25.28 0,0 -53.74,-33.14 -32.55,-124.32 21.2,-91.19 422.81,125.54 422.81,125.54 l -10.69,250.51 -259.09,176.56"
         style="fill:#29202e;fill-opacity:1;fill-rule:nonzero;stroke:none"
         id="path312" />
      <path
         d="m 2345.23,3555.36 c 0,0 64.49,19.27 78.21,-35.85 13.72,-55.13 -24.24,-70.06 -24.24,-70.06 0,0 53.54,69.72 98.12,26.57 44.57,-43.15 -20.59,-86.87 -20.59,-86.87 0,0 72.27,46.67 90.5,-3.25 18.22,-49.93 -40.18,-85.84 -40.18,-85.84 0,0 65.18,9.56 64.84,-19.74 -0.33,-29.3 -65.18,-9.56 -65.18,-9.56 0,0 93.46,-10.36 84.12,-84.23 -9.33,-73.85 -85.11,-37.83 -85.11,-37.83 0,0 57.92,-25.11 49.99,-118.39 -7.94,-93.28 -436.41,63.78 -436.41,63.78 l -25.25,249.48 231.18,211.79"
         style="fill:#29202e;fill-opacity:1;fill-rule:nonzero;stroke:none"
         id="path314" />
      <path
         d="m 1866.22,3520.93 c 0,0 -66.59,9.86 -72.28,-46.67 -5.7,-56.52 34.01,-65.87 34.01,-65.87 0,0 -62.96,61.35 -100.91,12.27 -37.95,-49.08 32.8,-83.03 32.8,-83.03 0,0 -78.2,35.85 -89.1,-16.17 -10.9,-52.01 52.04,-79.2 52.04,-79.2 0,0 -65.88,0.14 -61.36,-28.81 4.52,-28.95 65.88,-0.14 65.88,-0.14 0,0 -91.01,-23.63 -71.21,-95.39 19.79,-71.77 89.65,-25.28 89.65,-25.28 0,0 -53.74,-33.14 -32.55,-124.32 21.2,-91.19 422.81,125.54 422.81,125.54 l -10.69,250.51 -259.09,176.56"
         style="fill:#29202e;fill-opacity:1;fill-rule:nonzero;stroke:none"
         id="path316" />
      <path
         d="m 2345.23,3555.36 c 0,0 64.49,19.27 78.21,-35.85 13.72,-55.13 -24.24,-70.06 -24.24,-70.06 0,0 53.54,69.72 98.12,26.57 44.57,-43.15 -20.59,-86.87 -20.59,-86.87 0,0 72.27,46.67 90.5,-3.25 18.22,-49.93 -40.18,-85.84 -40.18,-85.84 0,0 65.18,9.56 64.84,-19.74 -0.33,-29.3 -65.18,-9.56 -65.18,-9.56 0,0 93.46,-10.36 84.12,-84.23 -9.33,-73.85 -85.11,-37.83 -85.11,-37.83 0,0 57.92,-25.11 49.99,-118.39 -7.94,-93.28 -436.41,63.78 -436.41,63.78 l -25.25,249.48 231.18,211.79"
         style="fill:#29202e;fill-opacity:1;fill-rule:nonzero;stroke:none"
         id="path318" />
      <path
         d="m 2285.46,3153.36 c -71.09,32.4 -65.4,214.1 -65.4,214.1 l -101.97,-13.96 -0.47,6.57 -10.73,-4.07 -11.2,2.5 0.48,-6.58 -102.92,-0.76 c 0,0 31.61,-179.03 -34.11,-221.25 -65.72,-42.23 -468.59,-89.94 -395.12,-503.46 l 581.29,41.78 21.92,1.57 581.29,41.78 c 13.58,419.78 -391.97,409.38 -463.06,441.78"
         style="fill:#a1444b;fill-opacity:1;fill-rule:nonzero;stroke:none"
         id="path320" />
      <path
         d="m 1991.18,3178.97 c 80.96,18.09 161.83,36.55 242.62,55.39 -15.97,61.36 -13.74,133.1 -13.74,133.1 l -101.97,-13.96 -0.47,6.57 -10.73,-4.07 -11.2,2.5 0.48,-6.58 -102.92,-0.76 c 0,0 18.33,-104.02 -2.07,-172.19"
         style="fill:#7a3134;fill-opacity:1;fill-rule:nonzero;stroke:none"
         id="path322" />
      <path
         d="m 1887.38,3608.92 c -24.65,61.08 -71.34,43.17 -75.7,41.34 -4.64,-0.88 -53.45,-11.75 -40.24,-76.28 13.28,-64.91 53.85,-97.7 88.76,-84.7 36.27,8.45 51.97,58.2 27.18,119.64"
         style="fill:#7a3134;fill-opacity:1;fill-rule:nonzero;stroke:none"
         id="path324" />
      <path
         d="m 2289.82,3637.85 c 15.66,63.97 64.43,52.93 69.01,51.74 4.72,-0.21 54.58,-3.99 50.74,-69.75 -3.86,-66.14 -39.33,-104.39 -75.74,-96.52 -37.1,3.18 -59.76,50.17 -44.01,114.53"
         style="fill:#7a3134;fill-opacity:1;fill-rule:nonzero;stroke:none"
         id="path326" />
      <path
         d="m 1831.67,3700.13 c 5.28,275.92 214.78,275.54 234.58,274.89 19.51,3.48 226.81,33.81 271.48,-238.52 44.95,-273.95 -64.93,-462.88 -220.98,-464.13 -154.61,-21.08 -290.38,150.19 -285.08,427.76"
         style="fill:#a1444b;fill-opacity:1;fill-rule:nonzero;stroke:none"
         id="path328" />
      <path
         d="m 2129.91,3591.92 c 8.53,-11.96 14.17,-24.74 18.93,-37.77 4.62,-13.08 8.21,-26.44 10.29,-40.24 l 0.63,-4.13 -1.92,-1.96 c -5.31,-5.45 -10.81,-10.73 -16.45,-15.91 -5.76,-5.07 -11.47,-10.19 -17.82,-14.77 3.38,7.06 7.4,13.59 11.36,20.16 4.09,6.47 8.3,12.84 12.71,19.04 l -1.28,-6.09 c -5.53,12.82 -9.56,26.06 -12.55,39.6 -2.85,13.58 -4.82,27.41 -3.9,42.07"
         style="fill:#7a3134;fill-opacity:1;fill-rule:nonzero;stroke:none"
         id="path330" />
      <path
         d="m 2211.93,3433.99 c -46.15,-51.8 -130.38,-55.16 -197.13,-16.76"
         style="fill:#ffffff;fill-opacity:1;fill-rule:nonzero;stroke:none"
         id="path332" />
      <path
         d="m 2283.82,3696.41 c -12.88,4.91 -24.36,9.45 -35.56,12.86 -11.15,3.44 -21.76,5.54 -31.89,5.7 -10.12,0.2 -20.09,-1.35 -30.35,-5.77 -5.43,-1.52 -10.35,-4.79 -16.02,-7.31 -5.55,-2.83 -10.64,-6.55 -17.27,-9.43 1.87,6.55 4.57,12.97 8.1,19 4.25,5.37 8.04,11.7 14.12,15.87 10.92,9.66 26.65,15.12 41.87,14.64 15.3,-0.27 29.62,-5.77 41.06,-13.85 11.33,-8.29 20.83,-18.66 25.94,-31.71"
         style="fill:#29202e;fill-opacity:1;fill-rule:nonzero;stroke:none"
         id="path334" />
      <path
         d="m 2024.23,3677.75 c -12.89,4.91 -24.37,9.45 -35.57,12.86 -11.14,3.45 -21.75,5.55 -31.88,5.7 -10.12,0.2 -20.1,-1.34 -30.36,-5.77 -5.43,-1.52 -10.35,-4.79 -16.01,-7.31 -5.56,-2.83 -10.65,-6.55 -17.28,-9.43 1.87,6.56 4.58,12.97 8.1,19 4.26,5.37 8.05,11.71 14.13,15.87 10.91,9.66 26.64,15.12 41.87,14.64 15.29,-0.27 29.61,-5.77 41.06,-13.85 11.32,-8.28 20.83,-18.65 25.94,-31.71"
         style="fill:#29202e;fill-opacity:1;fill-rule:nonzero;stroke:none"
         id="path336" />
      <path
         d="m 2023.13,3577.82 c -4.64,11.27 -10.32,21.89 -18.24,29.47 -7.84,7.56 -17.76,11.38 -28.4,10.42 -5.4,-0.08 -10.49,-1.34 -15.1,-3.32 -4.53,-2.12 -8.26,-5.51 -11.37,-9.76 -6.05,-8.74 -8.61,-20.64 -9.66,-32.76 -3.81,11.62 -4.38,25.09 1.6,37.45 2.92,6.19 8.11,11.47 14.19,15.1 6.28,3.24 13.1,4.88 19.76,5.21 13.47,1.2 28.17,-5.35 35.94,-16.19 8.14,-10.55 11.44,-23.36 11.28,-35.62"
         style="fill:#29202e;fill-opacity:1;fill-rule:nonzero;stroke:none"
         id="path338" />
      <path
         d="m 2256.14,3598.35 c -4.65,11.27 -10.31,21.89 -18.24,29.46 -7.84,7.58 -17.76,11.39 -28.4,10.42 -5.4,-0.07 -10.5,-1.33 -15.1,-3.3 -4.53,-2.13 -8.26,-5.52 -11.37,-9.77 -6.05,-8.73 -8.61,-20.64 -9.67,-32.76 -3.8,11.62 -4.37,25.09 1.62,37.45 2.91,6.19 8.1,11.46 14.18,15.1 6.28,3.24 13.1,4.88 19.76,5.21 13.47,1.2 28.17,-5.35 35.93,-16.2 8.15,-10.54 11.44,-23.35 11.29,-35.61"
         style="fill:#29202e;fill-opacity:1;fill-rule:nonzero;stroke:none"
         id="path340" />
      <path
         d="m 2074.32,3975.6 c 0,0 24.96,-167.11 -224.84,-255.81 0,0 13.39,-84.43 -2.7,-166.1 0,0 -91.07,113 -62.35,256.57 28.71,143.56 217.37,270.48 289.89,165.34"
         style="fill:#29202e;fill-opacity:1;fill-rule:nonzero;stroke:none"
         id="path342" />
      <path
         d="m 2054.25,3974.16 c 0,0 7.27,-168.38 267.18,-220.45 0,0 -4.46,-107.67 23.14,-186.2 0,0 77.26,147.06 28.31,285.04 -48.95,137.99 -261.89,236.04 -318.63,121.61"
         style="fill:#29202e;fill-opacity:1;fill-rule:nonzero;stroke:none"
         id="path344" />
      <path
         d="m 1887.11,3734.7 c -39.04,23.24 -74.54,54.25 -99.37,89.49 -1.26,-4.62 -2.38,-9.26 -3.31,-13.93 -28.72,-143.57 62.35,-256.57 62.35,-256.57 16.09,81.67 2.7,166.1 2.7,166.1 13.37,4.74 25.79,9.75 37.63,14.91"
         style="fill:#1e1922;fill-opacity:1;fill-rule:nonzero;stroke:none"
         id="path346" />
      <path
         d="m 2837.75,1726.9 -166.33,526.72 94.12,459.18 c 14.51,425.87 -403.71,414.84 -476.98,447.62 -28.21,12.62 -44.63,47.73 -54.19,86.13 -37.24,-11.18 -77.9,-18.78 -120.74,-21.86 -41.98,-3.02 -82.54,-1.46 -120.34,4.01 -4.02,-39.18 -15.26,-76.02 -41.26,-92.47 -67.83,-42.92 -483.34,-91.81 -408.07,-511.22 l 171.05,-399.11 c 0,0 -120.13,-277.22 -120.13,-499 h 1242.87"
         style="fill:#f2515a;fill-opacity:1;fill-rule:nonzero;stroke:none"
         id="path348" />
      <path
         d="m 1594.88,1726.9 58.39,-963.388 H 2837.75 V 1726.9 H 1594.88"
         style="fill:#321a30;fill-opacity:1;fill-rule:nonzero;stroke:none"
         id="path350" />
      <path
         d="m 1769.17,3064.21 c 0,0 -149.99,-44.75 -261.12,-157.14 -111.14,-112.4 -157.89,-280.62 -157.89,-280.62 l 328.61,-151.05 90.4,588.81"
         style="fill:#f2515a;fill-opacity:1;fill-rule:nonzero;stroke:none"
         id="path352" />
      <path
         d="m 2524.23,3099.94 c 0,0 154.48,-25.22 279.06,-122.51 124.57,-97.29 192.42,-258.16 192.42,-258.16 l -306.64,-191.77 -164.84,572.44"
         style="fill:#f2515a;fill-opacity:1;fill-rule:nonzero;stroke:none"
         id="path354" />
      <path
         d="m 1495.16,2278.66 -348.7,674.12 -191.495,-54.71 c 0,0 185.175,-648.75 232.145,-740.07 90.51,-175.97 404.74,-107.43 308.05,120.66"
         style="fill:#a1444b;fill-opacity:1;fill-rule:nonzero;stroke:none"
         id="path356" />
      <path
         d="m 1195.59,3220.89 c -24.72,-14.93 -61.96,-50.05 -92,-80.28 l -80.79,88.76 0.07,0.05 c -4.25,5.01 -13.45,15.09 -25.487,27.87 l -0.02,0.01 c -40.328,42.8 -112.894,116.24 -141.34,134.32 -36.941,23.49 -44.847,-11.63 -27.238,-29.95 13.582,-14.13 90.094,-113.89 124.356,-158.75 l -1.586,-1.96 c -36.262,39.23 -121.325,126.53 -152.7,146.47 -36.937,23.49 -44.839,-11.63 -27.238,-29.94 15.207,-15.82 109.285,-138.97 134.637,-172.24 l -1.211,-1.49 c -39.48,42.11 -115.563,119.43 -144.848,138.05 -36.941,23.49 -44.847,-11.63 -27.242,-29.94 11.621,-12.09 69.328,-86.89 107.215,-136.35 -38.277,33.25 -83.582,70.57 -104.023,81.37 -35.485,18.75 -40.129,-13.92 -22.7,-29.37 11.946,-10.57 74.184,-79.2 112.215,-121.4 L 947.52,2902 l 39.73,-96.69 189.19,77.76 -29.98,69.71 14.97,116.42 c 18.09,35.96 43.38,84.74 57.2,104.69 23.08,33.34 24.41,75.68 -23.04,47"
         style="fill:#a1444b;fill-opacity:1;fill-rule:nonzero;stroke:none"
         id="path358" />
      <path
         d="m 871.367,3067.3 2.129,1.61 119.363,147.78 c 1.93,2.39 1.559,5.88 -0.824,7.8 -2.379,1.92 -5.863,1.56 -7.789,-0.83 L 864.883,3075.87 c -1.93,-2.38 -1.559,-5.87 0.824,-7.78 1.656,-1.34 3.836,-1.57 5.66,-0.79"
         style="fill:#7a3134;fill-opacity:1;fill-rule:nonzero;stroke:none"
         id="path360" />
      <path
         d="m 1058.45,3033.96 c 2.24,0.95 3.66,3.33 3.3,5.87 -6.52,45.94 25.51,83.54 25.83,83.92 2,2.3 1.76,5.8 -0.55,7.8 -2.31,2.01 -5.8,1.78 -7.81,-0.54 -1.46,-1.67 -35.69,-41.68 -28.44,-92.74 0.43,-3.03 3.23,-5.14 6.27,-4.71 l 1.4,0.4"
         style="fill:#7a3134;fill-opacity:1;fill-rule:nonzero;stroke:none"
         id="path362" />
    </g>
  </g>
</svg>
